<?xml version="1.0" encoding="utf-8"?>
<!-- Generator: Adobe Illustrator 27.3.1, SVG Export Plug-In . SVG Version: 6.00 Build 0)  -->
<svg version="1.1" id="Layer_1" xmlns="http://www.w3.org/2000/svg" xmlns:xlink="http://www.w3.org/1999/xlink" x="0px" y="0px"
	 viewBox="0 0 200 200" style="enable-background:new 0 0 200 200;" xml:space="preserve">
<style type="text/css">
	.st0{fill:#FFFDFD;}
	.st1{fill:#FFFDFD;stroke:#FFFFFF;stroke-width:6;stroke-miterlimit:10;}
</style>
<g>
	<path class="st0" d="M112.6,92.2c-2.9-20.6-20.3-35.9-41.1-35.9c-20.8,0-38.3,15.3-41.1,35.9c-14.9,3.5-25.1,18.2-22.4,34.2
		c2.3,13.9,14.4,24.4,28.5,24.7c3.6,0.1,7.1-0.5,10.5-1.6c3,4.5,7.2,8,12,10.2L56.2,181H44v4h54v-4H86.7l-2.6-21.3
		c4.8-2.3,8.9-5.8,12-10.2c3.1,1.1,6.4,1.6,9.7,1.6c16.4,0,29.7-13.4,29.7-29.8C135.4,107.4,125.9,95.4,112.6,92.2z M60.5,182
		l4.8-38.2c0.1-0.6-0.2-1.3-0.6-1.7l-18-16.7l5-4.9l11.9,10.8c0.6,0.5,1.5,0.7,2.2,0.4c0.7-0.3,1.2-1,1.2-1.8V106h10v23.7
		c0,0.8,0.5,1.5,1.3,1.9c0.8,0.3,1.6,0.1,2.2-0.4l11-10.9l5,4.9l-17.2,17c-0.4,0.4-0.7,1-0.6,1.7l4.8,38.2
		C83.5,182,60.5,182,60.5,182z M123.6,142.6c-9.4,5.9-19.3,6.7-27.8,2.8c-0.3-0.1-0.7,0-0.9,0.3c-2.5,4.6-6.2,8.2-10.6,10.5
		l-1.5-12.1l17.8-17.6c0.4-0.4,0.6-0.9,0.6-1.4s-0.2-1-0.6-1.4l-8.7-8.6c-0.3-0.3-0.7-0.3-1,0l-9.9,9.8v-22.1c0-0.4-0.3-0.7-0.7-0.7
		H63.7c-0.4,0-0.7,0.3-0.7,0.7v22.4l-9.9-8.9c-0.8-0.7-2-0.7-2.8,0.1l-7.8,7.7c-0.4,0.4-0.6,0.9-0.6,1.4c0,0.5,0.2,1.1,0.6,1.4
		l18.7,17.4l-1.5,12.1c-4.1-2.2-7.6-5.4-10.1-9.5c-0.4-0.6-1-1-1.7-1c-0.3,0-0.5,0-0.8,0.2c-8.2,3.3-17.7,2.4-26.8-3.3
		c-0.8-0.5-1.5-1.1-2.1-1.8C3.3,122,14.2,100,32.5,96.7c0.9-0.2,1.5-0.9,1.6-1.8c2-19.2,18.3-33.6,37.8-33.6s35.8,14.5,37.8,33.6
		c0.1,0.9,0.8,1.6,1.6,1.8c18.4,3.3,29.3,25.3,14.2,44.1C125.1,141.5,124.4,142.1,123.6,142.6z"/>
</g>
<line class="st1" x1="19" y1="183" x2="181" y2="183"/>
<line class="st1" x1="112" y1="157" x2="112" y2="185"/>
<line class="st1" x1="127" y1="157" x2="127" y2="185"/>
<line class="st1" x1="142" y1="152" x2="142" y2="185"/>
<line class="st1" x1="157" y1="141" x2="157" y2="185"/>
<line class="st1" x1="172" y1="157" x2="172" y2="185"/>
</svg>
