<?xml version="1.0" encoding="utf-8"?>
<!-- Generator: Adobe Illustrator 27.3.1, SVG Export Plug-In . SVG Version: 6.00 Build 0)  -->
<svg version="1.1" id="Layer_1" xmlns="http://www.w3.org/2000/svg" xmlns:xlink="http://www.w3.org/1999/xlink" x="0px" y="0px"
	 viewBox="0 0 200 200" style="enable-background:new 0 0 200 200;" xml:space="preserve">
<style type="text/css">
	.st0{fill:#FFFDFD;}
	.st1{fill:#FFFDFD;stroke:#FFFFFF;stroke-width:6;stroke-miterlimit:10;}
</style>
<g>
	<g>
		<g>
			<g>
				<path class="st0" d="M190,191.1H8V70.9l60.6-28.3l52.5,22.6L190,8.3V191.1z M15.7,183.4h166.6V24.3l-59.9,49.5l-53.6-23
					L15.7,75.7V183.4z"/>
			</g>
		</g>
		<g>
			<g>
				<rect x="117.5" y="70.8" class="st0" width="7.7" height="117.2"/>
			</g>
		</g>
		<g>
			<g>
				<path class="st0" d="M57.4,191.1H23.4l0-47c0-8.9,6.6-16.7,15.4-17.5c10.1-0.9,18.5,7.1,18.5,17V191.1z M31.1,183.4h18.5l0-39.7
					c0-4.8-3.4-9-8.1-9.6c-5.6-0.7-10.4,3.8-10.4,9.4V183.4z"/>
			</g>
		</g>
		<g>
			<g>
				<rect x="137.6" y="77" class="st0" width="33.9" height="7.7"/>
			</g>
		</g>
		<g>
			<g>
				<rect x="137.6" y="104.8" class="st0" width="33.9" height="7.7"/>
			</g>
		</g>
		<g>
			<g>
				<rect x="137.6" y="131" class="st0" width="33.9" height="7.7"/>
			</g>
		</g>
		<g>
			<g>
				<rect x="137.6" y="157.2" class="st0" width="33.9" height="7.7"/>
			</g>
		</g>
		<g>
			<g>
				<path class="st0" d="M111.3,104.8H65.1V81.6h46.3V104.8z M72.8,97.1h30.8v-7.7H72.8V97.1z"/>
			</g>
		</g>
		<g>
			<g>
				<path class="st0" d="M111.3,138.7H65.1v-23.1h46.3V138.7z M72.8,131h30.8v-7.7H72.8V131z"/>
			</g>
		</g>
	</g>
</g>
</svg>
