<?xml version="1.0" encoding="utf-8"?>
<!-- Generator: Adobe Illustrator 27.3.1, SVG Export Plug-In . SVG Version: 6.00 Build 0)  -->
<svg version="1.1" id="Layer_1" xmlns="http://www.w3.org/2000/svg" xmlns:xlink="http://www.w3.org/1999/xlink" x="0px" y="0px"
	 viewBox="0 0 200 200" style="enable-background:new 0 0 200 200;" xml:space="preserve">
<style type="text/css">
	.st0{fill:#FFFDFD;}
	.st1{fill:#FFFDFD;stroke:#FFFFFF;stroke-width:6;stroke-miterlimit:10;}
</style>
<g>
	<g>
		<g>
			<path class="st0" d="M92.9,103.2c11.1,0,20.1-9.1,20.1-20.1S104,63,92.9,63S72.8,72,72.8,83.1S81.8,103.2,92.9,103.2z M92.9,71.2
				c6.6,0,12.1,5.4,12.1,12.1s-5.4,12.1-12.1,12.1S80.8,90,80.8,83.3S86.2,71.2,92.9,71.2z"/>
			<path class="st0" d="M122.3,132.1c-3-13.7-15.3-23.5-29.4-23.5s-26.4,9.9-29.4,23.5l-2.8,12.5c-0.8,3.4,0,6.8,2.2,9.7
				c2.2,2.6,5.4,4.2,8.9,4.2h41.9c3.4,0,6.6-1.6,8.9-4.2c2.2-2.6,3-6.2,2.2-9.7L122.3,132.1z M116.4,150.9c-0.4,0.4-1.2,1.2-2.6,1.2
				H72c-1.4,0-2.2-0.8-2.6-1.2c-0.4-0.4-1-1.4-0.6-2.8l2.8-12.5c2.2-10.1,11.3-17.3,21.5-17.3s19.3,7.2,21.5,17.3l2.8,12.5
				C117.4,149.5,116.8,150.5,116.4,150.9z"/>
			<path class="st0" d="M170.6,36.4C170.6,20.3,157.3,7,141,7c-0.2,0-0.4,0-0.6,0c-6.2,0.2-12.1,2-17.1,5.8
				c-6.4,4.8-10.5,11.7-11.5,19.3c-11-2.5-22.1-3.1-35.4-0.7c-26.5,4.8-49,22.9-58.8,48C-4.8,137.2,38,192.2,92.9,192.2
				c44.7,0,81.1-36.4,81.1-81.1c0-18.1-6-35.6-17.1-49.7C165.1,55.9,170.6,46.9,170.6,36.4z M128.3,20.7c3.6-2.6,7.8-4.2,12.5-4.2
				h0.2c11.9,0,21.3,9.7,21.3,21.3s-9.5,21.3-21.3,21.3c-3,0-6-0.6-8.9-1.8c-0.6-0.2-1-0.4-1.6-0.4s-1.2,0.2-1.8,0.4l-2.6,1.4
				l0.6-1.2c0.8-1.6,0.4-3.4-0.8-4.6c-4-4-6.2-9.5-6.2-15.1C119.7,31,122.7,24.7,128.3,20.7z M165.9,111.1
				c0,40.3-32.8,73.1-73.1,73.1s-73.1-32.8-73.1-73.1s32.8-73.3,73.1-73.3c6.4,0,12.9,0.8,18.9,2.6c0.8,5.4,2.8,10.5,6.4,14.7
				l-4,8.9c-0.8,1.6-0.4,3.4,0.8,4.6c0.8,0.8,1.8,1.2,2.8,1.2c0.6,0,1.2-0.2,1.8-0.4l11.1-5.2c3.2,1.2,6.8,1.8,10.5,1.8
				c2.8,0,5.6-0.4,8.3-1.2C160.1,77.7,165.9,94.2,165.9,111.1z"/>
			<path class="st0" d="M134.3,35.8c1,0,2-0.4,2.8-1.2c0.8-0.8,1.2-1.8,1.2-2.8s-0.4-2-1.2-2.8c-1.6-1.4-4.2-1.4-5.6,0
				c-0.8,0.8-1.2,1.8-1.2,2.8s0.4,2.2,1.2,2.8C132.1,35.4,133.3,35.8,134.3,35.8z"/>
			<path class="st0" d="M147.8,35.8c1,0,2-0.4,2.8-1.2c0.8-0.8,1.2-1.8,1.2-2.8s-0.4-2-1.2-2.8c-1.4-1.4-4.2-1.4-5.6,0
				c-0.8,0.8-1.2,1.8-1.2,2.8s0.4,2.2,1.2,2.8C145.6,35.4,146.6,35.8,147.8,35.8z"/>
			<path class="st0" d="M131.3,49.7c3.6,1.8,7,2.8,10.3,2.8s6.4-1,10.3-2.8c2-1,2.8-3.4,1.8-5.4c-1-2-3.4-2.8-5.4-1.8
				c-5.2,2.6-7.8,2.6-13.1,0c-2-1-4.4-0.2-5.4,1.8C128.5,46.1,129.3,48.7,131.3,49.7z"/>
		</g>
	</g>
</g>
</svg>
