<svg width="24" height="24" viewBox="0 0 24 24" fill="none" xmlns="http://www.w3.org/2000/svg">
<path fill-rule="evenodd" clip-rule="evenodd" d="M16.9476 0.0722141C15.6677 0.0138147 15.259 0 12 0C8.74098 0 8.33235 0.0138147 7.05242 0.0722141C5.77515 0.130471 4.90284 0.333344 4.13954 0.630009C3.35043 0.936629 2.68123 1.34695 2.01406 2.01406C1.34695 2.68123 0.93663 3.35044 0.630008 4.13954C0.333342 4.90283 0.13047 5.77516 0.0722133 7.05242C0.0138136 8.33234 0 8.74099 0 12C0 15.259 0.0138136 15.6677 0.0722133 16.9476C0.13047 18.2248 0.333342 19.0972 0.630008 19.8605C0.93663 20.6496 1.34695 21.3188 2.01406 21.9859C2.68123 22.6531 3.35043 23.0634 4.13954 23.37C4.90284 23.6667 5.77515 23.8695 7.05242 23.9278C8.33235 23.9862 8.74098 24 12 24C15.259 24 15.6677 23.9862 16.9476 23.9278C18.2248 23.8695 19.0972 23.6667 19.8605 23.37C20.6496 23.0634 21.3188 22.6531 21.9859 21.9859C22.6531 21.3188 23.0634 20.6496 23.37 19.8605C23.6667 19.0972 23.8695 18.2248 23.9278 16.9476C23.9862 15.6677 24 15.259 24 12C24 8.74099 23.9862 8.33234 23.9278 7.05242C23.8695 5.77516 23.6667 4.90283 23.37 4.13954C23.0634 3.35044 22.6531 2.68123 21.9859 2.01406C21.3188 1.34695 20.6496 0.936629 19.8605 0.630009C19.0972 0.333344 18.2248 0.130471 16.9476 0.0722141ZM18.3243 11.8457C18.3243 8.44235 15.5654 5.68348 12.1622 5.68348C8.75887 5.68348 6 8.44235 6 11.8457C6 15.2489 8.75887 18.0078 12.1622 18.0078C15.5654 18.0078 18.3243 15.2489 18.3243 11.8457ZM16.1622 11.8457C16.1622 14.0548 14.3713 15.8456 12.1622 15.8456C9.95301 15.8456 8.16216 14.0548 8.16216 11.8457C8.16216 9.63649 9.95301 7.84564 12.1622 7.84564C14.3713 7.84564 16.1622 9.63649 16.1622 11.8457ZM18.5678 6.88C19.3631 6.88 20.0078 6.23532 20.0078 5.44003C20.0078 4.64473 19.3631 4 18.5678 4C17.7725 4 17.1278 4.64473 17.1278 5.44003C17.1278 6.23532 17.7725 6.88 18.5678 6.88Z" fill="white"/>
</svg>
