<svg id="Capa_1" data-name="Capa 1" xmlns="http://www.w3.org/2000/svg" viewBox="0 0 1450.04 938.26"><defs><style>.cls-1{fill:#fff;}</style></defs><title>Logo_Elia</title><polygon class="cls-1" points="258.23 595.02 258.23 484.23 438.27 484.23 438.27 425.5 188.43 425.46 188.43 657.07 458.21 657.07 458.21 595.02 258.23 595.02"/><path class="cls-1" d="M579.32,595l0-314a16.71,16.71,0,0,0-16.71-16.71H526.2A16.72,16.72,0,0,0,509.48,281l0,376H746.07V595Z"/><path class="cls-1" d="M799.43,281a16.71,16.71,0,0,1,16.71-16.71h36.39A16.71,16.71,0,0,1,869.24,281v376h-69.8Z"/><path class="cls-1" d="M441.5,264.84H188.43v61l253.07,0a16.71,16.71,0,0,0,16.71-16.71V281.55A16.71,16.71,0,0,0,441.5,264.84Z"/><path class="cls-1" d="M1262.39,638.05a19.09,19.09,0,0,0-1.2-6.66l0,0,0,0c-.11-.24-.36-.72-.36-.72l-42.47-90.81H1040l49.27-104.47V266.56L906.65,657.07h78.6l22.22-47.5h163.79l22.2,47.5h50.12v0A19,19,0,0,0,1262.39,638.05Z"/></svg>