<?xml version="1.0" encoding="utf-8"?>
<!-- Generator: Adobe Illustrator 27.3.1, SVG Export Plug-In . SVG Version: 6.00 Build 0)  -->
<svg version="1.1" id="Layer_1" xmlns="http://www.w3.org/2000/svg" xmlns:xlink="http://www.w3.org/1999/xlink" x="0px" y="0px"
	 viewBox="0 0 19 30" style="enable-background:new 0 0 19 30;" xml:space="preserve">
<style type="text/css">
	.st0{fill:#A52A2A;}
</style>
<g>
	<path class="st0" d="M18.1,9.5c0-4.8-4-8.7-8.9-8.5c-4.1,0.2-7.5,3.3-8,7.4c-0.6,4.6,2.6,8.7,7,9.4v0.1v9.8c0,0.7,0.5,1.3,1.1,1.4
		c0.9,0.2,1.7-0.5,1.7-1.4v-9.9v-0.1C15.1,17.1,18.1,13.6,18.1,9.5z M9.6,15.1C6.5,15.1,4,12.6,4,9.5s2.5-5.6,5.6-5.6
		s5.6,2.5,5.6,5.6S12.7,15.1,9.6,15.1z"/>
</g>
</svg>
